<?xml version="1.0" standalone="no"?>
<!DOCTYPE svg PUBLIC "-//W3C//DTD SVG 20010904//EN"
 "http://www.w3.org/TR/2001/REC-SVG-20010904/DTD/svg10.dtd">
<svg version="1.0" xmlns="http://www.w3.org/2000/svg"
 width="500.000000pt" height="500.000000pt" viewBox="0 0 500.000000 500.000000"
 preserveAspectRatio="xMidYMid meet">

<g transform="translate(0.000000,500.000000) scale(0.100000,-0.100000)"
fill="#000000" stroke="none">
<path d="M2604 4900 c-175 -37 -445 -141 -586 -227 -159 -96 -254 -197 -285
-302 -14 -47 -14 -68 -5 -134 6 -42 23 -105 37 -140 l25 -62 -32 -45 c-394
-557 -649 -863 -815 -978 -139 -97 -394 -172 -658 -193 -158 -13 -175 -17
-194 -51 -20 -34 -6 -77 31 -97 56 -32 444 21 639 88 168 57 277 121 396 234
139 132 416 474 613 754 47 67 90 122 95 122 6 1 25 -24 43 -54 101 -168 331
-430 458 -521 94 -67 145 -86 233 -88 61 0 86 4 125 23 58 29 108 77 138 134
35 65 31 291 -12 577 -40 271 -39 345 9 441 38 76 35 112 -12 139 -80 45 -165
-91 -174 -280 -4 -72 3 -145 26 -305 40 -276 50 -459 28 -502 -30 -57 -64 -75
-133 -71 -51 3 -72 10 -119 42 -223 148 -532 576 -591 819 -24 97 -12 133 75
217 109 106 326 214 571 285 201 58 269 58 366 -1 48 -29 66 -34 118 -34 85 0
233 -25 309 -53 158 -58 242 -133 382 -347 171 -259 213 -286 610 -385 314
-78 375 -106 375 -171 0 -92 -53 -257 -118 -368 -74 -126 -247 -276 -372 -322
-54 -19 -170 -23 -390 -10 -179 9 -262 -3 -366 -54 -73 -35 -207 -158 -300
-273 -73 -92 -162 -235 -170 -276 -8 -40 28 -81 72 -81 41 0 49 8 122 127 111
180 271 341 381 385 51 20 69 22 211 18 338 -8 411 -6 474 14 68 23 203 105
283 173 171 145 298 396 319 628 8 88 -5 133 -54 187 -61 68 -154 103 -472
178 -156 37 -258 72 -312 106 -45 28 -82 76 -190 243 -133 205 -255 307 -441
371 -84 28 -258 60 -332 60 -21 0 -54 10 -78 24 -54 32 -147 56 -212 55 -27 0
-91 -9 -141 -19z"/>
<path d="M1833 3025 c-158 -43 -321 -165 -437 -328 -30 -42 -70 -83 -105 -106
-31 -21 -85 -67 -119 -102 -139 -140 -210 -294 -232 -506 -18 -171 -21 -179
-77 -187 -25 -3 -71 -6 -102 -6 -190 -1 -595 -103 -658 -166 -30 -30 -29 -69
2 -99 31 -32 46 -31 145 5 171 63 408 109 561 110 135 0 208 36 243 120 8 19
21 99 30 178 24 207 63 304 170 420 30 32 88 82 130 112 53 38 88 73 121 121
69 102 177 199 275 248 45 22 93 41 106 41 23 0 24 -3 24 -60 0 -34 -7 -105
-16 -160 -21 -121 -14 -138 68 -165 132 -43 227 -136 333 -330 24 -42 72 -104
123 -157 84 -87 85 -87 78 -128 -12 -79 -62 -148 -131 -183 -16 -8 -64 -22
-105 -32 -144 -33 -221 -55 -246 -72 -60 -39 -67 -118 -34 -356 70 -502 68
-777 -10 -1001 -27 -80 -26 -110 6 -135 60 -47 103 -19 138 86 86 264 93 489
30 973 -14 107 -28 222 -31 256 l-5 61 63 12 c275 55 366 106 435 246 30 62
37 87 42 160 l5 87 -91 91 c-64 65 -109 124 -157 202 -116 191 -188 268 -312
331 -41 20 -52 31 -48 43 4 9 9 68 12 131 6 130 -4 183 -43 230 -23 26 -32 30
-77 29 -29 0 -76 -7 -104 -14z"/>
<path d="M3520 2242 c-22 -12 -44 -35 -57 -62 -22 -43 -23 -53 -23 -332 l0
-288 -288 0 c-279 0 -289 -1 -332 -22 -78 -40 -80 -51 -80 -369 0 -270 1 -277
23 -309 12 -18 35 -43 50 -54 27 -20 42 -21 327 -24 l299 -3 3 -299 c3 -284 4
-300 24 -326 11 -15 33 -37 48 -48 26 -20 40 -21 314 -21 284 0 287 0 320 23
65 47 67 56 70 379 l3 292 292 3 c335 3 343 5 385 88 22 44 23 51 20 317 -3
256 -4 273 -24 299 -11 15 -33 37 -48 48 -26 20 -42 21 -326 24 l-299 3 -3
299 c-3 285 -4 300 -24 327 -11 15 -36 38 -54 51 -32 21 -39 22 -309 22 -248
0 -280 -2 -311 -18z m545 -283 c4 -84 6 -224 5 -313 -3 -201 -4 -192 20 -216
19 -19 33 -20 350 -20 l330 0 0 -235 0 -234 -329 -3 c-307 -3 -330 -4 -350
-22 -20 -19 -21 -27 -21 -315 0 -163 -3 -313 -6 -334 l-7 -37 -233 0 -234 0 0
326 c0 193 -4 333 -10 344 -19 35 -64 40 -381 40 l-309 0 0 235 0 235 325 0
326 0 24 25 25 24 0 326 0 325 234 0 233 0 8 -151z"/>
</g>
</svg>
