<?xml version="1.0" standalone="no"?>
<!DOCTYPE svg PUBLIC "-//W3C//DTD SVG 20010904//EN"
 "http://www.w3.org/TR/2001/REC-SVG-20010904/DTD/svg10.dtd">
<svg version="1.0" xmlns="http://www.w3.org/2000/svg"
 width="500.000000pt" height="500.000000pt" viewBox="0 0 500.000000 500.000000"
 preserveAspectRatio="xMidYMid meet">

<g transform="translate(0.000000,500.000000) scale(0.100000,-0.100000)"
fill="#000000" stroke="none">
<path d="M2459 4915 c-36 -19 -192 -203 -256 -302 -97 -148 -170 -323 -215
-512 -18 -75 -21 -132 -27 -439 l-6 -352 -148 -148 c-81 -81 -152 -154 -157
-162 -6 -8 -10 -128 -10 -271 0 -243 1 -256 20 -277 24 -26 60 -36 90 -27 13
4 34 34 56 78 41 82 60 106 92 118 38 15 62 -5 62 -50 0 -54 35 -101 97 -131
53 -25 53 -25 53 -72 0 -46 2 -50 80 -126 l80 -78 0 -63 c0 -47 -3 -62 -12
-58 -143 63 -217 77 -310 58 l-56 -12 -52 55 c-77 82 -141 110 -260 114 -146
6 -243 -37 -243 -108 0 -66 72 -101 130 -62 19 12 47 17 98 17 59 0 78 -4 118
-28 58 -34 94 -86 109 -159 10 -49 9 -63 -10 -122 -25 -76 -27 -105 -9 -128
17 -22 67 -30 97 -15 34 17 69 122 70 209 0 79 9 88 93 88 38 0 68 -8 108 -27
70 -36 106 -87 121 -173 17 -102 78 -141 133 -85 25 24 25 24 25 235 l0 210
80 0 80 0 0 -210 c0 -211 0 -211 25 -235 55 -56 116 -17 133 85 15 82 51 136
117 172 43 24 60 28 120 25 l70 -2 6 -85 c6 -92 38 -184 70 -200 46 -25 110 4
111 50 1 14 -7 56 -17 93 -15 57 -16 76 -6 120 15 70 51 120 109 154 39 23 58
28 117 28 51 0 79 -5 98 -17 58 -39 130 -4 130 64 0 64 -95 108 -234 108 -113
0 -176 -26 -258 -107 l-66 -63 -55 11 c-91 19 -165 5 -307 -58 -10 -4 -13 10
-13 54 l0 58 80 80 c79 78 80 80 80 130 l0 50 53 25 c58 28 97 77 97 122 0 37
16 68 36 68 42 0 76 -32 108 -104 48 -105 100 -133 151 -81 l25 24 0 262 0
263 -154 155 -154 156 -5 325 c-4 239 -10 348 -22 410 -37 197 -62 250 -117
250 -75 0 -95 -41 -68 -136 46 -160 50 -233 50 -923 l0 -651 -390 0 -390 0 0
646 c0 714 4 772 62 954 59 184 168 378 283 505 l45 50 46 -50 c24 -27 72 -89
105 -137 33 -48 69 -93 80 -99 46 -24 109 16 109 70 0 45 -126 222 -248 349
-63 66 -85 73 -133 47z m-499 -1970 c0 -159 -2 -165 -51 -165 -22 0 -55 -6
-74 -14 l-34 -14 -6 53 c-13 100 -1 132 78 212 49 50 74 69 79 60 4 -6 8 -66
8 -132z m1250 -81 c0 -38 -3 -79 -6 -91 -6 -20 -8 -20 -40 -7 -18 8 -52 14
-74 14 -34 0 -40 3 -41 23 -1 12 -3 58 -5 102 -3 44 -2 105 2 134 l6 55 79
-81 79 -80 0 -69z m-473 -460 c4 -11 -14 -36 -56 -77 l-61 -62 -119 -1 -119
-2 -58 59 c-100 101 -103 99 171 99 207 0 236 -2 242 -16z"/>
<path d="M2395 4273 c-79 -41 -124 -114 -125 -199 0 -63 23 -88 78 -87 43 1
72 31 72 75 0 39 40 78 80 78 36 0 80 -38 80 -69 0 -52 -44 -91 -101 -91 -29
0 -61 -50 -55 -85 22 -112 216 -72 281 58 59 119 16 259 -97 318 -48 24 -169
26 -213 2z"/>
<path d="M790 4210 c-12 -12 -20 -33 -20 -53 0 -29 20 -53 183 -214 202 -203
224 -217 271 -170 30 30 33 62 8 97 -10 14 -93 100 -186 193 -151 150 -172
167 -202 167 -21 0 -42 -8 -54 -20z"/>
<path d="M3944 4050 c-99 -99 -183 -191 -188 -204 -20 -53 50 -116 99 -89 8 5
96 89 195 188 162 160 180 182 180 212 0 43 -30 73 -74 73 -31 0 -51 -17 -212
-180z"/>
<path d="M1688 3742 c-102 -53 -288 -231 -393 -377 -79 -111 -165 -279 -205
-405 -40 -123 -70 -299 -70 -410 0 -84 1 -90 26 -109 35 -27 69 -27 98 2 20
20 24 37 29 124 27 405 213 756 531 998 97 73 103 82 90 131 -13 52 -56 71
-106 46z"/>
<path d="M3243 3740 c-29 -12 -45 -44 -41 -83 3 -26 16 -41 83 -91 439 -326
638 -880 500 -1394 -83 -309 -249 -558 -500 -749 -44 -33 -97 -79 -119 -103
-55 -61 -97 -157 -104 -236 l-5 -64 -511 0 c-281 0 -528 -3 -548 -6 -43 -7
-41 -11 -56 86 -19 130 -79 219 -216 322 -112 86 -196 167 -283 276 -67 83
-77 92 -107 92 -48 0 -80 -29 -80 -72 0 -26 14 -52 63 -116 74 -97 204 -229
287 -291 139 -105 181 -165 191 -279 9 -104 43 -150 124 -172 l39 -11 0 -257
c0 -239 1 -259 20 -290 36 -59 71 -72 192 -72 l108 0 19 -38 c40 -77 107 -116
201 -116 96 0 181 53 211 131 8 22 13 23 117 23 97 0 113 3 142 23 62 41 73
73 71 210 -2 139 -10 157 -70 157 -66 0 -81 -28 -81 -144 l0 -86 -130 0 c-126
0 -132 -1 -155 -25 -14 -13 -25 -33 -25 -44 0 -83 -97 -116 -144 -49 -9 12
-16 33 -16 46 0 12 -11 34 -25 47 -23 24 -29 25 -155 25 l-130 0 0 235 0 235
390 0 390 0 0 -59 c0 -74 25 -111 75 -111 54 0 73 25 77 98 l3 64 37 13 c87
30 115 68 129 176 15 118 56 177 199 285 155 117 309 302 404 484 302 583 197
1274 -263 1730 -98 98 -224 196 -261 204 -14 3 -35 1 -47 -4z"/>
<path d="M2449 3341 c-24 -19 -24 -19 -27 -284 l-3 -265 24 -28 c33 -38 81
-38 114 0 l24 28 -3 265 c-3 265 -3 265 -27 284 -13 10 -36 19 -51 19 -15 0
-38 -9 -51 -19z"/>
<path d="M123 2570 c-48 -20 -57 -87 -18 -126 l25 -25 264 3 c243 3 266 5 285
22 27 24 28 76 2 107 -19 24 -19 24 -278 26 -142 1 -268 -2 -280 -7z"/>
<path d="M4327 2560 c-21 -17 -27 -30 -27 -60 0 -30 6 -43 27 -60 26 -20 35
-21 291 -18 264 3 264 3 283 27 10 13 19 36 19 51 0 15 -9 38 -19 51 -19 24
-19 24 -283 27 -256 3 -265 2 -291 -18z"/>
<path d="M1095 2258 c-51 -27 -56 -66 -25 -168 27 -89 38 -107 71 -120 35 -15
78 4 97 42 10 23 9 39 -14 120 -34 122 -71 158 -129 126z"/>
<path d="M992 1098 c-221 -217 -222 -218 -222 -255 0 -43 30 -73 73 -73 30 0
52 19 211 178 97 97 181 184 186 192 17 26 11 60 -15 85 -47 48 -64 39 -233
-127z"/>
<path d="M3775 1225 c-50 -49 -41 -62 162 -267 167 -168 191 -188 220 -188 44
0 73 30 73 76 0 33 -13 48 -167 200 -93 91 -179 174 -192 185 -32 26 -67 24
-96 -6z"/>
<path d="M2290 680 c-12 -12 -20 -33 -20 -55 0 -22 8 -43 20 -55 19 -19 33
-20 210 -20 177 0 191 1 210 20 12 12 20 33 20 55 0 22 -8 43 -20 55 -19 19
-33 20 -210 20 -177 0 -191 -1 -210 -20z"/>
</g>
</svg>
